<?xml version="1.0" standalone="no"?>
<!DOCTYPE svg PUBLIC "-//W3C//DTD SVG 20010904//EN"
 "http://www.w3.org/TR/2001/REC-SVG-20010904/DTD/svg10.dtd">
<svg version="1.0" xmlns="http://www.w3.org/2000/svg"
 width="500.000000pt" height="500.000000pt" viewBox="0 0 500.000000 500.000000"
 preserveAspectRatio="xMidYMid meet">
<metadata>
Created by potrace 1.11, written by Peter Selinger 2001-2013
</metadata>
<g transform="translate(0.000000,500.000000) scale(0.100000,-0.100000)"
fill="#000000" stroke="none">
<path d="M2055 4976 c-528 -102 -993 -353 -1353 -731 -321 -337 -533 -735
-641 -1206 -143 -627 -32 -1279 312 -1842 344 -562 907 -981 1518 -1131 253
-62 408 -76 566 -53 67 11 88 10 120 -1 48 -17 250 -11 378 12 225 41 483 128
693 235 528 270 958 745 1176 1300 184 467 227 1079 110 1545 -159 631 -533
1147 -1100 1516 -200 130 -433 236 -669 303 -225 65 -274 70 -650 73 -321 3
-347 2 -460 -20z m795 -122 c190 -29 347 -70 499 -130 657 -261 1180 -807
1404 -1464 41 -121 68 -235 92 -395 32 -214 29 -540 -9 -765 -58 -349 -179
-662 -359 -930 -383 -567 -941 -922 -1622 -1031 -202 -32 -518 -30 -721 5 -83
14 -164 30 -180 35 -16 5 -65 19 -109 31 -274 77 -584 244 -838 454 -361 296
-649 731 -777 1172 -113 386 -124 789 -34 1194 50 223 161 506 264 671 29 46
61 99 71 117 25 44 123 169 211 270 90 103 294 285 419 373 311 218 720 371
1094 409 165 16 430 9 595 -16z"/>
<path d="M2424 4844 c-12 -5 -8 -73 7 -112 9 -22 13 -23 62 -17 28 4 53 8 54
9 1 0 -4 28 -11 61 l-12 60 -44 2 c-25 1 -50 0 -56 -3z"/>
<path d="M2692 4778 c3 -63 3 -63 36 -66 l32 -3 0 59 c0 62 -7 72 -51 72 -18
0 -20 -6 -17 -62z"/>
<path d="M2193 4822 c-10 -6 -9 -20 4 -65 15 -55 17 -57 49 -57 39 0 39 -3 18
72 -14 47 -21 58 -38 58 -11 0 -27 -4 -33 -8z"/>
<path d="M2937 4793 c-4 -3 -7 -32 -7 -64 0 -57 8 -69 44 -69 18 0 29 122 13
132 -15 10 -42 10 -50 1z"/>
<path d="M1968 4783 c-23 -6 -22 -16 1 -78 17 -44 23 -50 46 -48 15 1 30 4 33
7 8 9 -41 126 -53 125 -5 -1 -18 -3 -27 -6z"/>
<path d="M3165 4679 c-7 -63 -4 -73 32 -83 20 -6 22 -2 30 56 10 67 1 88 -38
88 -13 0 -19 -13 -24 -61z"/>
<path d="M1723 4713 c-19 -7 -16 -28 12 -84 22 -43 29 -49 48 -43 36 10 37 17
9 74 -26 52 -42 65 -69 53z"/>
<path d="M2508 4672 l-56 -3 -7 -74 c-15 -153 -15 -154 -64 -32 -42 103 -45
108 -70 103 -14 -3 -44 -8 -66 -12 -22 -4 -43 -8 -47 -11 -12 -7 3 -32 16 -27
9 3 34 -47 78 -153 112 -270 106 -240 79 -408 -18 -109 -27 -145 -38 -145 -8
0 -13 -7 -11 -17 3 -17 21 -19 54 -9 6 2 16 44 24 93 21 141 23 142 61 20 19
-60 38 -108 42 -108 4 1 27 1 51 1 l43 0 -8 51 c-11 67 -53 211 -95 325 l-34
91 14 129 c9 78 11 133 5 139 -5 5 -9 14 -9 20 0 5 5 3 10 -5 6 -9 10 -11 10
-3 0 7 7 10 15 7 8 -4 15 -12 15 -20 0 -8 4 -14 10 -14 5 0 7 -6 4 -14 -3 -7
4 -60 16 -117 43 -213 84 -557 70 -574 -8 -10 3 -14 52 -20 35 -3 90 -12 123
-20 121 -27 125 -28 125 -11 0 8 -7 19 -16 24 -12 7 -19 34 -25 103 -14 142
-47 358 -76 504 -18 91 -22 130 -14 133 6 2 11 12 11 22 0 15 -12 19 -77 25
-94 9 -140 11 -215 7z m184 -183 c52 -270 89 -579 70 -579 -6 0 -13 19 -16 43
-3 23 -15 116 -26 207 -11 91 -34 232 -50 315 -34 172 -34 168 -18 163 6 -2
24 -69 40 -149z"/>
<path d="M3400 4624 c-6 -15 -14 -44 -19 -66 -8 -36 -7 -40 16 -49 38 -14 39
-13 53 52 12 57 12 63 -5 75 -27 20 -34 18 -45 -12z"/>
<path d="M1505 4607 c-11 -7 -21 -13 -23 -13 -2 -1 11 -25 28 -53 27 -43 36
-51 54 -45 38 11 39 22 9 70 -32 53 -40 58 -68 41z"/>
<path d="M3580 4493 l-21 -57 23 -18 c13 -10 27 -18 31 -18 5 0 15 -7 24 -16
9 -8 19 -12 23 -7 9 9 40 102 40 117 0 11 -71 56 -89 56 -5 0 -19 -26 -31 -57z"/>
<path d="M1263 4488 l-33 -20 42 -54 c24 -30 46 -54 51 -54 12 0 87 52 87 61
0 17 -78 89 -96 88 -10 0 -34 -10 -51 -21z"/>
<path d="M1535 4430 c-27 -16 -63 -40 -78 -52 l-29 -24 41 -94 c22 -52 39 -95
37 -97 -2 -2 -41 28 -87 67 -46 38 -86 70 -89 70 -4 0 -31 -17 -60 -37 -60
-43 -75 -67 -39 -61 19 2 65 -32 209 -154 l185 -158 51 -129 c33 -82 48 -133
42 -139 -14 -14 8 -25 32 -17 28 9 25 33 -14 122 -19 43 -33 80 -30 82 3 3 36
-26 74 -64 l70 -69 92 46 c51 25 110 51 131 59 38 13 51 39 19 39 -11 0 -57
52 -122 138 -107 140 -263 333 -333 410 -27 30 -36 47 -29 54 12 12 5 38 -12
38 -6 0 -33 -14 -61 -30z m80 -215 c123 -148 288 -359 318 -408 45 -73 -3 -37
-221 164 l-123 114 -59 132 c-53 120 -60 148 -39 141 4 -2 60 -66 124 -143z"/>
<path d="M3513 4384 c-3 -9 -1 -19 6 -23 13 -8 -2 -59 -74 -250 -98 -263 -167
-413 -186 -408 -6 1 -13 -3 -16 -9 -3 -10 90 -88 121 -100 18 -7 31 13 18 29
-7 8 8 51 45 137 30 69 63 148 73 175 39 105 91 241 97 255 4 8 8 20 9 25 6
37 27 73 40 68 23 -9 16 31 -8 46 -101 63 -119 71 -125 55z"/>
<path d="M3805 4350 c-14 -27 -25 -55 -25 -61 0 -11 28 -38 41 -39 3 0 18 27
34 61 29 59 29 61 10 75 -28 21 -32 18 -60 -36z"/>
<path d="M1070 4352 l-24 -20 29 -34 c17 -19 40 -42 51 -51 20 -15 23 -15 45
4 l23 20 -50 50 -50 50 -24 -19z"/>
<path d="M4013 4233 c-4 -10 -17 -31 -30 -46 -13 -16 -23 -34 -23 -41 0 -13
31 -46 43 -46 3 0 20 25 37 56 31 53 31 56 15 75 -22 24 -34 24 -42 2z"/>
<path d="M886 4191 c-24 -26 -20 -35 28 -75 51 -42 57 -43 81 -16 18 20 17 21
-25 58 -60 52 -65 54 -84 33z"/>
<path d="M4148 4024 c-37 -44 -38 -46 -20 -69 9 -14 20 -25 24 -25 11 0 78 86
78 102 0 17 -20 38 -34 37 -6 0 -28 -21 -48 -45z"/>
<path d="M717 4022 c-10 -10 -17 -21 -17 -25 0 -3 26 -24 57 -47 l58 -41 17
22 c10 11 18 24 18 28 0 6 -104 81 -113 81 -2 0 -11 -8 -20 -18z"/>
<path d="M4300 3851 c-43 -37 -44 -40 -31 -65 20 -36 33 -33 74 17 34 41 34
44 18 65 l-16 22 -45 -39z"/>
<path d="M576 3826 c-15 -24 -15 -25 38 -55 29 -17 57 -31 61 -31 9 0 34 31
35 42 0 6 -102 68 -113 68 -2 0 -12 -11 -21 -24z"/>
<path d="M4436 3667 l-47 -42 26 -48 c29 -52 30 -52 90 2 l38 33 -24 45 c-13
25 -26 46 -29 48 -3 2 -27 -15 -54 -38z"/>
<path d="M4289 3665 c-1 -6 -2 -19 -3 -30 -1 -21 -167 -168 -363 -323 -68 -52
-123 -99 -123 -104 0 -5 -5 -6 -10 -3 -6 4 -17 1 -25 -5 -8 -6 -19 -9 -25 -5
-27 16 -27 -10 0 -60 16 -30 34 -62 39 -72 5 -10 20 -47 33 -82 23 -64 48 -91
48 -53 0 14 29 43 88 88 97 76 291 238 391 326 49 44 68 55 78 47 34 -29 20
28 -32 133 -52 105 -93 166 -96 143z m46 -183 c-84 -76 -310 -266 -385 -323
-109 -83 -138 -101 -144 -90 -3 4 32 37 77 72 105 80 225 180 296 245 127 114
165 144 175 134 7 -7 1 -19 -19 -38z"/>
<path d="M671 3638 c-7 -12 -9 -23 -4 -27 29 -20 173 -132 173 -135 0 -2 -33
3 -72 11 -40 8 -96 17 -124 20 l-50 5 -26 -58 c-21 -49 -23 -60 -10 -62 8 -2
18 1 22 7 5 9 71 0 236 -31 l229 -43 107 -85 c59 -47 106 -90 103 -97 -8 -23
17 -26 38 -4 11 11 19 22 16 24 -47 36 -159 129 -159 132 0 4 100 -19 165 -39
l50 -15 47 46 c27 26 48 51 48 55 0 4 -17 7 -37 6 -21 -1 -102 15 -179 35 -78
21 -182 45 -232 55 -78 16 -97 25 -144 63 -30 24 -77 60 -106 79 -28 19 -52
42 -52 51 0 26 -25 29 -39 7z"/>
<path d="M444 3604 c-15 -25 -25 -47 -23 -49 2 -2 28 -13 58 -24 59 -24 70
-20 98 32 18 35 14 40 -55 65 l-52 20 -26 -44z"/>
<path d="M3710 3504 c0 -8 5 -12 10 -9 6 4 8 11 5 16 -9 14 -15 11 -15 -7z"/>
<path d="M4565 3444 c-22 -14 -46 -28 -53 -33 -11 -6 -11 -13 0 -40 l13 -33
55 38 c30 20 56 38 58 39 5 4 -21 55 -27 54 -3 0 -24 -12 -46 -25z"/>
<path d="M2520 3433 c-100 -10 -242 -48 -315 -83 -253 -122 -477 -338 -593
-572 -89 -180 -110 -354 -67 -557 24 -111 99 -279 176 -393 82 -120 244 -282
259 -258 5 8 -25 45 -80 100 -155 157 -258 340 -321 570 -18 66 -14 279 7 365
61 253 293 519 601 692 122 68 313 109 467 100 195 -10 357 -84 507 -228 293
-284 395 -663 284 -1055 -70 -244 -286 -487 -539 -603 -236 -108 -507 -122
-720 -35 -70 28 -66 28 -66 9 0 -22 78 -54 190 -77 151 -31 364 -17 508 34
229 80 406 219 541 423 98 149 124 225 157 455 42 286 -75 616 -296 840 -213
216 -431 301 -700 273z"/>
<path d="M346 3384 c-4 -15 -6 -27 -4 -29 2 -1 29 -9 61 -18 54 -15 58 -15 67
3 17 32 12 39 -42 55 -69 20 -75 19 -82 -11z"/>
<path d="M4638 3214 c-47 -24 -58 -43 -39 -72 7 -11 19 -8 62 13 67 34 61 28
53 59 -8 32 -16 32 -76 0z"/>
<path d="M277 3159 c-9 -32 -1 -37 65 -45 56 -6 57 -6 64 20 3 15 4 29 1 32
-3 3 -32 8 -65 11 -56 5 -59 4 -65 -18z"/>
<path d="M4700 2980 c-32 -12 -46 -24 -48 -40 -6 -40 12 -45 73 -20 50 20 56
26 53 49 -4 32 -20 34 -78 11z"/>
<path d="M210 2922 c0 -29 2 -30 58 -35 64 -5 70 -2 74 33 3 24 1 25 -64 28
l-68 3 0 -29z"/>
<path d="M1090 2775 c-14 -7 -90 -30 -170 -51 -80 -20 -172 -47 -204 -60 -56
-22 -64 -23 -150 -13 -50 6 -113 10 -140 10 -39 0 -49 4 -53 20 -5 20 -32 27
-34 9 -6 -57 -10 -54 94 -66 54 -7 100 -13 102 -16 2 -2 -41 -21 -96 -42 l-99
-39 0 -38 c0 -31 3 -37 16 -32 9 3 20 0 25 -8 9 -15 50 -3 294 87 l121 44 99
-14 c97 -13 114 -11 115 15 0 9 -38 19 -75 19 -45 1 -14 14 80 36 44 9 85 22
91 28 10 10 34 90 34 115 0 14 -19 12 -50 -4z"/>
<path d="M4785 2755 c-5 -2 -29 -9 -52 -15 -43 -11 -53 -28 -34 -58 7 -11 18
-10 65 3 52 15 56 19 56 46 0 27 -9 33 -35 24z"/>
<path d="M255 2722 c-73 -5 -85 -10 -85 -40 0 -27 0 -27 61 -24 62 4 74 13 67
49 -2 14 -11 17 -43 15z"/>
<path d="M4623 2661 c-3 -10 -15 -21 -26 -24 -94 -21 -343 -71 -437 -87 -147
-24 -202 -28 -207 -13 -3 7 -10 10 -17 7 -10 -4 -13 -41 -14 -147 0 -96 -5
-162 -16 -204 -9 -33 -16 -70 -16 -82 0 -24 15 -28 27 -8 5 8 46 19 98 26 50
7 204 35 344 63 182 37 256 48 259 40 2 -7 12 -12 23 -12 18 0 19 9 19 169 0
92 -3 196 -6 230 -7 60 -21 80 -31 42z m7 -151 c0 -5 -3 -10 -7 -11 -5 0 -15
-2 -23 -4 -65 -17 -202 -46 -285 -60 -55 -10 -108 -24 -117 -33 -13 -11 -18
-12 -18 -3 0 9 -11 11 -37 6 -96 -15 -183 -21 -180 -11 2 6 57 19 123 29 65
10 200 35 299 55 200 42 245 47 245 32z m20 -50 c0 -11 -7 -20 -15 -20 -8 0
-15 9 -15 20 0 11 7 20 15 20 8 0 15 -9 15 -20z m-313 -74 c-9 -23 -37 -20
-37 3 0 21 20 33 34 20 5 -4 6 -15 3 -23z m287 -25 c-9 -8 -421 -90 -554 -111
-86 -13 -137 -13 -124 0 6 6 78 22 160 36 82 14 232 42 334 62 165 34 211 37
184 13z m-619 -11 c10 -16 -16 -43 -28 -31 -11 11 -2 41 12 41 5 0 13 -5 16
-10z"/>
<path d="M1037 2558 c-2 -7 3 -18 12 -25 9 -6 13 -14 10 -17 -3 -4 -64 -13
-135 -21 -144 -17 -490 -81 -516 -95 -26 -15 -35 -12 -41 10 -8 32 -24 23 -29
-17 -7 -61 3 -143 18 -143 7 0 17 7 22 16 15 27 427 108 645 127 36 4 47 1 47
-10 0 -8 6 -13 13 -11 8 3 13 35 15 101 l3 97 -30 0 c-16 0 -31 -6 -34 -12z"/>
<path d="M4750 2531 c-35 -6 -35 -6 -38 -63 -2 -32 1 -58 5 -58 4 1 33 7 63
14 l55 12 2 52 c2 51 1 52 -25 51 -15 -1 -43 -4 -62 -8z"/>
<path d="M210 2511 c-35 -6 -35 -6 -38 -63 l-3 -57 38 6 c59 10 83 17 82 27 0
5 5 13 13 17 10 7 10 9 1 9 -8 0 -13 14 -13 35 0 38 -4 40 -80 26z"/>
<path d="M220 2256 c-19 -7 -35 -18 -34 -24 1 -7 2 -20 3 -31 1 -18 4 -18 62
-4 45 12 59 19 55 30 -4 8 -6 21 -6 29 0 17 -32 17 -80 0z"/>
<path d="M4730 2260 c-18 -4 -26 -14 -28 -33 -3 -25 0 -27 31 -27 19 0 49 3
66 6 26 5 31 11 31 35 0 26 -3 28 -37 26 -21 0 -49 -4 -63 -7z"/>
<path d="M1114 2152 c-6 -4 -13 -14 -16 -23 -4 -9 -45 -38 -93 -64 -137 -74
-369 -223 -464 -297 -18 -13 -27 -15 -32 -7 -9 15 -29 3 -29 -17 0 -18 89
-233 105 -254 6 -8 30 -48 53 -87 l43 -72 117 76 c64 41 126 82 137 89 41 29
35 12 -16 -48 -30 -35 -56 -65 -60 -68 -33 -29 -117 -146 -111 -154 50 -68 75
-95 83 -90 6 3 7 13 4 23 -9 29 294 367 449 499 35 31 37 36 27 58 -9 20 -16
24 -34 19 -54 -17 -348 -191 -509 -302 -43 -30 -78 -49 -78 -43 0 14 20 31
145 122 162 118 292 201 363 234 34 15 62 34 62 42 0 7 -11 37 -25 65 -35 75
-71 174 -84 232 -14 60 -23 76 -37 67z m16 -152 c0 -5 -24 -22 -52 -36 -61
-31 -294 -182 -418 -272 -47 -34 -89 -62 -94 -62 -42 -1 342 268 494 346 75
39 70 37 70 24z m50 -128 c0 -5 -39 -30 -87 -57 -85 -47 -284 -178 -410 -270
-34 -25 -64 -41 -67 -36 -12 18 512 371 551 371 7 0 13 -4 13 -8z"/>
<path d="M278 2024 c-33 -17 -48 -31 -48 -45 0 -29 21 -32 74 -9 41 19 47 25
44 47 -4 35 -15 36 -70 7z"/>
<path d="M4650 2005 c-6 -16 -7 -31 -3 -35 4 -3 33 -4 65 -2 47 3 57 7 62 25
3 12 4 22 3 23 -1 1 -28 5 -59 9 -56 7 -58 7 -68 -20z"/>
<path d="M4321 1974 c0 -11 3 -14 6 -6 3 7 2 16 -1 19 -3 4 -6 -2 -5 -13z"/>
<path d="M3810 1855 c-6 -8 -24 -38 -39 -67 -56 -112 -141 -229 -245 -337 -60
-62 -67 -72 -45 -67 18 4 51 -4 100 -25 41 -16 169 -63 284 -104 280 -97 295
-104 288 -121 -3 -8 1 -14 10 -14 14 0 62 59 151 187 20 29 36 55 36 58 0 2
14 27 31 55 28 45 32 79 8 64 -15 -9 -419 129 -561 193 -32 14 -58 32 -58 39
0 10 27 4 98 -22 53 -20 193 -69 310 -109 127 -44 219 -80 227 -91 11 -16 16
-10 47 56 36 77 39 91 15 71 -11 -9 -60 4 -219 58 -213 71 -384 136 -405 153
-7 6 -11 14 -8 18 10 16 -13 20 -25 5z m-25 -279 c44 -18 182 -68 308 -112
139 -48 227 -83 227 -91 0 -7 -6 -13 -14 -13 -41 0 -566 194 -603 223 -14 11
-17 27 -5 27 4 0 43 -15 87 -34z m27 -155 c101 -37 239 -88 308 -111 69 -24
127 -45 129 -47 3 -2 0 -8 -6 -14 -7 -7 -62 8 -184 51 -234 82 -459 171 -459
181 0 17 31 8 212 -60z"/>
<path d="M340 1801 c-35 -22 -44 -33 -42 -51 3 -33 7 -34 42 -20 54 23 78 47
73 75 -7 31 -16 31 -73 -4z"/>
<path d="M1970 1809 c0 -5 5 -7 10 -4 6 3 10 8 10 11 0 2 -4 4 -10 4 -5 0 -10
-5 -10 -11z"/>
<path d="M4586 1775 c-4 -15 -5 -29 -3 -32 3 -2 30 -7 61 -10 54 -6 56 -5 66
22 6 15 9 29 8 31 -2 1 -31 6 -64 9 -61 7 -61 7 -68 -20z"/>
<path d="M427 1588 c-47 -33 -55 -50 -37 -78 8 -12 13 -13 27 -2 10 6 27 16
38 21 33 14 46 37 39 65 -3 14 -9 26 -13 26 -4 0 -28 -15 -54 -32z"/>
<path d="M4511 1554 c-15 -33 -12 -35 43 -41 80 -9 106 37 32 56 -60 15 -61
15 -75 -15z"/>
<path d="M2082 1504 c1 -9 9 -19 16 -22 9 -3 13 2 10 14 -1 9 -9 19 -16 22 -9
3 -13 -2 -10 -14z"/>
<path d="M1453 1480 c3 -12 -17 -62 -53 -132 -32 -62 -88 -189 -124 -283 -90
-230 -93 -236 -111 -229 -24 10 -18 -32 8 -49 12 -8 36 -28 53 -45 48 -46 172
-125 188 -119 7 3 32 40 55 82 58 106 101 172 101 154 -1 -7 -14 -77 -30 -154
-26 -128 -27 -142 -13 -157 9 -10 22 -18 30 -18 8 0 28 -7 44 -16 36 -18 49
-12 26 13 -14 17 -11 35 38 228 51 198 80 293 120 393 16 40 16 45 2 59 -21
21 -30 13 -106 -87 -53 -70 -214 -341 -257 -432 -10 -21 -21 -38 -25 -38 -20
0 -16 25 17 111 19 52 44 117 54 144 32 89 87 211 136 303 l48 89 -94 101
c-94 102 -117 119 -107 82z m28 -271 c-38 -79 -95 -214 -126 -299 -57 -153
-69 -179 -80 -168 -13 12 148 418 218 551 70 132 61 68 -12 -84z"/>
<path d="M515 1397 l-49 -44 30 -46 30 -47 48 43 49 43 -30 47 -30 48 -48 -44z"/>
<path d="M4396 1350 c-15 -23 -24 -45 -22 -49 3 -5 29 -16 57 -25 57 -19 54
-20 94 47 l16 27 -46 20 c-26 11 -52 20 -60 20 -7 0 -24 -18 -39 -40z"/>
<path d="M662 1187 c-45 -46 -51 -67 -26 -88 13 -11 21 -6 57 29 40 40 41 42
26 72 l-14 31 -43 -44z"/>
<path d="M4260 1155 c-19 -23 -7 -38 43 -57 46 -16 46 -16 61 7 16 24 15 25
-24 45 -47 24 -63 25 -80 5z"/>
<path d="M3085 1146 c-18 -13 -17 -17 24 -112 50 -116 165 -346 210 -422 22
-37 29 -60 25 -77 -5 -22 -4 -23 23 -16 36 10 34 17 -29 132 -65 120 -140 270
-136 274 2 1 86 -64 188 -146 102 -82 188 -149 192 -149 12 0 118 64 118 72 0
4 -11 8 -25 8 -32 0 -301 213 -489 386 -37 35 -71 64 -75 64 -4 0 -16 -6 -26
-14z"/>
<path d="M2096 1051 c-4 -5 1 -16 9 -24 9 -9 19 -51 25 -105 12 -104 37 -231
79 -400 34 -134 37 -158 19 -165 -9 -3 -10 -8 -2 -16 12 -13 173 -31 180 -19
7 10 -7 245 -16 277 -3 14 -11 26 -17 28 -11 4 -9 -173 3 -244 10 -65 -14 -31
-36 48 -50 186 -78 331 -105 546 l-7 52 -56 12 c-32 6 -60 13 -64 15 -4 3 -9
0 -12 -5z"/>
<path d="M804 999 c-35 -48 -36 -51 -19 -70 17 -18 19 -18 38 -2 36 33 59 73
52 92 -12 37 -33 31 -71 -20z"/>
<path d="M2374 998 c-4 -6 -8 -67 -10 -137 -3 -69 -6 -145 -8 -168 -4 -45 3
-52 27 -29 12 12 16 10 30 -14 9 -15 15 -29 12 -31 -2 -3 22 -70 53 -149 l58
-145 67 -3 c45 -2 67 1 67 8 0 7 -8 14 -18 17 -24 6 -153 351 -196 525 -27
112 -34 127 -54 131 -12 2 -25 0 -28 -5z"/>
<path d="M4111 976 l-22 -24 38 -22 c70 -40 70 -40 87 -21 9 10 16 22 16 27 0
7 -55 45 -91 62 -3 1 -15 -8 -28 -22z"/>
<path d="M983 878 c-5 -7 -21 -32 -33 -56 l-24 -42 21 -22 22 -21 30 48 c36
57 37 66 12 89 -14 13 -20 14 -28 4z"/>
<path d="M3935 817 c-22 -17 -16 -29 39 -67 l44 -29 18 20 c18 20 18 21 -21
54 -45 38 -53 41 -80 22z"/>
<path d="M1126 678 c-21 -48 -22 -55 -8 -70 23 -27 30 -23 60 38 26 55 27 56
8 70 -30 21 -34 18 -60 -38z"/>
<path d="M3746 671 c-16 -17 -14 -20 28 -55 50 -40 58 -43 76 -21 11 14 7 22
-25 55 -44 45 -55 48 -79 21z"/>
<path d="M1306 570 c-24 -60 -20 -74 24 -105 22 -15 42 -26 44 -24 2 2 13 30
24 61 l21 57 -44 25 c-24 14 -46 26 -48 26 -3 0 -12 -18 -21 -40z"/>
<path d="M3553 567 c-24 -11 -43 -24 -43 -28 0 -14 65 -88 78 -88 7 -1 31 8
53 19 l40 21 -41 49 c-23 28 -43 50 -43 49 -1 0 -21 -10 -44 -22z"/>
<path d="M1535 478 c-19 -53 -22 -99 -8 -113 27 -28 41 -17 54 41 12 52 11 58
-6 70 -23 17 -34 18 -40 2z"/>
<path d="M3335 466 c-17 -13 -17 -15 15 -60 33 -45 52 -54 78 -37 11 7 7 19
-20 59 -35 55 -44 60 -73 38z"/>
<path d="M1746 378 c-3 -13 -6 -40 -6 -61 0 -30 5 -39 23 -46 30 -12 35 -5 38
58 3 46 0 55 -16 62 -30 12 -32 11 -39 -13z"/>
<path d="M3118 383 c-23 -6 -23 -6 10 -64 22 -40 32 -49 55 -49 34 0 34 10 0
71 -26 48 -31 51 -65 42z"/>
<path d="M1970 278 c0 -57 12 -78 42 -78 17 0 19 7 16 63 -3 59 -4 62 -30 65
-27 3 -28 2 -28 -50z"/>
<path d="M2880 310 c0 -5 10 -30 22 -55 18 -38 27 -45 51 -45 31 0 31 4 1 77
-12 27 -20 33 -44 33 -17 0 -30 -4 -30 -10z"/>
<path d="M2204 238 c9 -64 11 -68 42 -68 24 0 25 2 19 48 -9 68 -12 72 -41 72
-26 0 -26 -1 -20 -52z"/>
<path d="M2663 253 c12 -61 26 -83 52 -83 28 0 29 4 14 66 -10 40 -14 44 -41
44 -28 0 -30 -2 -25 -27z"/>
<path d="M2410 254 c0 -9 5 -33 11 -54 11 -36 13 -37 60 -39 45 -1 49 0 49 23
0 13 -3 38 -6 55 -6 30 -8 31 -60 31 -43 0 -54 -3 -54 -16z"/>
</g>
</svg>
